<?xml version="1.0" encoding="utf-8"?>
<!-- Generator: Adobe Illustrator 27.5.0, SVG Export Plug-In . SVG Version: 6.00 Build 0)  -->
<svg version="1.1" id="Ñëîé_1" xmlns="http://www.w3.org/2000/svg" xmlns:xlink="http://www.w3.org/1999/xlink" x="0px" y="0px"
	 viewBox="0 0 2800 2000" style="enable-background:new 0 0 2800 2000;" xml:space="preserve">
<rect id="_x31_1" style="fill:#FFFFFF;" width="2800" height="2000"/>
<g>
	<g id="_x31_0">
		<path style="fill:#CFDDF9;" d="M150.139,1607.672c0,0-5.447,65.026,98.306,112.456c108.982,49.819,644.191,23.919,507.221,82.587
			c-97.414,41.725,56.897,74.599,447.203,85.972c200.688,5.848,1075.781,20.575,870.456-94.229
			c-152.489-85.262,593.718,36.766,575.94-186.786H150.139z"/>
		<path style="fill:#D4E8FF;" d="M590.092,1606.375c0,0-294.737-679.023-82.634-830.224
			c141.771-101.064,254.772,118.612,434.129,0.752c159.678-104.929,20.951-389.553,240.755-435.293
			c284.042-59.107,509.464,515.925,744.439,434.541c285.126-98.754,568.751,101.718,323.647,831.52L590.092,1606.375z"/>
		<path style="fill:#DCE6FF;" d="M359.481,1540.824c-4.948-13.596-9.843-27.684-14.55-41.872l11.6-3.094
			c4.676,14.096,9.539,28.093,14.454,41.598L359.481,1540.824z M2434.614,1523.266l-12.01-1.33
			c1.994-14.473,3.888-29.049,5.629-43.322l12.03,1.181C2438.515,1494.117,2436.615,1508.744,2434.614,1523.266z M331.572,1456.776
			c-4.236-14.022-8.343-28.305-12.21-42.451l11.754-2.583c3.843,14.062,7.926,28.258,12.137,42.196L331.572,1456.776z
			 M2445.216,1436.25l-12.047-1.021c1.531-14.531,2.949-29.148,4.214-43.444l12.063,0.857
			C2448.178,1406.994,2446.754,1421.665,2445.216,1436.25z M308.304,1371.624c-3.495-14.286-6.821-28.73-9.885-42.934l11.882-2.061
			c3.045,14.115,6.35,28.471,9.823,42.668L308.304,1371.624z M2452.92,1348.975l-12.078-0.686
			c1.024-14.521,1.923-29.169,2.67-43.534l12.088,0.505C2454.85,1319.687,2453.949,1334.394,2452.92,1348.975z M289.747,1285.544
			c-2.691-14.46-5.183-29.042-7.405-43.341l11.985-1.498c2.208,14.203,4.683,28.687,7.356,43.052L289.747,1285.544z
			 M2457.448,1261.506l-12.097-0.315c0.472-14.585,0.797-29.249,0.968-43.582l12.101,0.115
			C2458.249,1232.124,2457.923,1246.854,2457.448,1261.506z M276.269,1198.687c-1.804-14.606-3.374-29.296-4.668-43.661
			l12.062-0.874c1.284,14.259,2.842,28.84,4.633,43.34L276.269,1198.687z M2446.368,1174.024
			c-0.143-14.597-0.452-29.255-0.919-43.569l12.097-0.317c0.469,14.388,0.781,29.121,0.924,43.791L2446.368,1174.024z
			 M268.428,1111.25c-0.803-14.692-1.335-29.442-1.582-43.842l12.101-0.168c0.245,14.28,0.773,28.908,1.569,43.479L268.428,1111.25z
			 M2443.504,1086.924c-0.831-14.577-1.853-29.203-3.036-43.473l12.067-0.805c1.191,14.352,2.218,29.063,3.054,43.724
			L2443.504,1086.924z M279.061,1023.745l-12.099-0.223c0.337-14.731,0.987-29.486,1.932-43.853l12.081,0.638
			C280.038,994.537,279.394,1009.151,279.061,1023.745z M2436.27,1000.065c-1.617-14.574-3.448-29.131-5.44-43.266l12.006-1.361
			c2.007,14.23,3.849,28.884,5.477,43.553L2436.27,1000.065z M284.812,936.983l-12.041-1.084
			c1.644-14.675,3.648-29.343,5.957-43.597l11.976,1.56C288.419,907.958,286.437,922.466,284.812,936.983z M2424.054,913.698
			c-2.518-14.483-5.282-28.91-8.215-42.883l11.892-2.008c2.958,14.084,5.744,28.625,8.281,43.219L2424.054,913.698z
			 M992.821,912.167c-16.815-2.378-28.979-9.242-45.827-21.096l7.649-8.409c14.76,10.357,25.421,16.571,39.467,18.714
			L992.821,912.167z M1034.807,886.347l-10.777-4.936c5.54-9.728,10.437-23.227,14.556-40.123l11.822,2.317
			C1046.007,861.661,1040.904,875.642,1034.807,886.347z M911.477,859.946c-9.641-9.627-19.943-20.707-31.496-33.873l9.51-6.711
			c11.39,12.979,21.527,23.883,30.99,33.334L911.477,859.946z M298.786,851.046l-11.88-2.068
			c3.135-14.485,6.682-28.928,10.543-42.929l11.748,2.606C305.385,822.478,301.882,836.74,298.786,851.046z M2406.058,828.215
			c-3.583-14.333-7.449-28.543-11.49-42.234l11.7-2.777c4.079,13.824,7.981,28.169,11.597,42.637L2406.058,828.215z
			 M1058.551,799.93l-12.002-1.385c1.858-12.954,3.525-27.139,5.092-43.367l12.057,0.937
			C1062.115,772.494,1060.432,786.826,1058.551,799.93z M850.342,791.109c-9.837-11.913-20.04-24.506-28.832-35.374l9.796-6.372
			c8.774,10.847,18.957,23.414,28.761,35.289L850.342,791.109z M1736.329,790.216c-9.424,0-18.672-2.525-27.483-7.504l6.452-9.182
			c13.237,7.494,26.26,7.51,40.321,1.534l5.207,9.796C1752.511,788.414,1744.27,790.216,1736.329,790.216z M322.07,766.834
			l-11.573-3.174c4.809-14.1,10.083-28.124,15.68-41.682l11.349,3.767C332.01,739.108,326.81,752.932,322.07,766.834z
			 M1800.398,756.488l-8.891-7.362c9.175-8.912,19.011-19.904,30.07-33.607l9.804,6.363
			C1820.037,735.937,1809.903,747.257,1800.398,756.488z M1674.436,749.026c-7.832-10.834-15.593-23.594-23.727-39.006l10.938-4.642
			c7.902,14.973,15.406,27.319,22.944,37.745L1674.436,749.026z M2381.198,744.221c-4.875-14.061-10.076-27.903-15.461-41.141
			l11.369-3.719c5.451,13.401,10.716,27.41,15.648,41.638L2381.198,744.221z M792.831,720.354
			c-11.072-13.569-20.299-24.709-29.038-35.058l9.648-6.552c8.78,10.397,18.045,21.582,29.157,35.201L792.831,720.354z
			 M1067.338,712.289l-12.077-0.701c0.917-12.715,1.851-27.005,2.853-43.689l12.084,0.584
			C1069.194,685.206,1068.258,699.534,1067.338,712.289z M355.665,685.574l-11.072-4.382c6.643-13.493,13.723-26.742,21.245-39.698
			l10.731,5.017C369.167,659.259,362.203,672.296,355.665,685.574z M1859.105,685.571l-10.112-5.963
			c8.6-11.724,17.483-24.147,26.475-36.696l10.181,5.866C1876.635,661.36,1867.742,673.793,1859.105,685.571z M1631.229,669.522
			c-5.481-12.33-11.146-25.781-17.316-41.125l11.383-3.682c6.126,15.229,11.743,28.57,17.175,40.787L1631.229,669.522z
			 M2347.934,662.753c-6.506-13.591-13.388-26.792-20.456-39.239l10.785-4.924c7.186,12.656,14.181,26.074,20.791,39.881
			L2347.934,662.753z M733.913,650.909c-10.981-12.223-21.202-23.102-31.248-33.259l9.053-7.201
			c10.174,10.286,20.516,21.293,31.619,33.652L733.913,650.909z M1072.717,624.706l-12.087-0.546
			c0.815-14.498,1.625-29.004,2.489-43.765l12.085,0.569C1074.341,595.717,1073.531,610.215,1072.717,624.706z M1912.179,612.126
			l-10.096-5.984c10.111-13.719,19.154-25.588,27.647-36.281l9.857,6.295C1931.177,586.746,1922.212,598.512,1912.179,612.126z
			 M400.569,609.063l-10.2-5.84c9.51-13.356,19.315-25.418,29.143-35.852l9.245,7.003
			C419.275,584.44,409.791,596.112,400.569,609.063z M1597.755,586.985c-5.55-14.584-10.995-29.177-15.589-41.528l11.48-3.434
			c4.588,12.334,10.024,26.903,15.563,41.457L1597.755,586.985z M669.392,586.225c-12.369-10.799-24.531-20.339-36.147-28.355
			l7.38-8.601c11.987,8.271,24.506,18.089,37.209,29.179L669.392,586.225z M2303.982,585.761
			c-8.671-12.689-17.763-24.691-27.023-35.67l9.651-6.547c9.497,11.261,18.814,23.557,27.689,36.546L2303.982,585.761z
			 M462.701,544.848l-7.34-8.628c14.452-9.886,29.493-17.016,44.705-21.19l3.541,10.378
			C489.77,529.204,476.008,535.745,462.701,544.848z M1968.776,541.529l-9.401-6.833c11.349-12.558,22.103-23.364,32.877-33.034
			l8.561,7.67C1990.338,518.734,1979.859,529.266,1968.776,541.529z M1077.916,537.262l-12.08-0.646
			c1.048-15.774,2.088-30.099,3.181-43.794l12.071,0.774C1079.999,507.248,1078.961,521.531,1077.916,537.262z M593.235,534.99
			c-15.101-6.739-29.954-11.04-44.147-12.784l1.643-10.752c15.5,1.905,31.614,6.554,47.895,13.82L593.235,534.99z M2245.828,517.447
			c-11.65-10.704-23.714-20.152-35.853-28.082l7.125-8.772c12.686,8.286,25.265,18.135,37.389,29.274L2245.828,517.447z
			 M1566.73,503.93c-6.02-16.147-10.981-29.312-15.613-41.433l11.447-3.518c4.643,12.147,9.614,25.337,15.643,41.51L1566.73,503.93z
			 M2037.03,481.63l-6.936-8.892c14.883-9.337,29.915-16.253,44.681-20.553l3.737,10.321
			C2064.888,466.474,2050.932,472.909,2037.03,481.63z M2169.073,468.335c-14.988-5.669-30.159-9.178-45.093-10.429l1.125-10.805
			c16.167,1.355,32.542,5.134,48.67,11.235L2169.073,468.335z M1084.959,450.028l-12.054-0.96
			c1.508-15.226,3.149-29.932,4.876-43.707l12.026,1.213C1088.09,420.265,1086.458,434.885,1084.959,450.028z M1535.015,421.221
			c-5.848-14.637-11.358-28.017-16.847-40.903l11.305-3.872c5.519,12.957,11.058,26.406,16.934,41.115L1535.015,421.221z
			 M1095.968,363.301l-11.977-1.552c2.448-15.194,5.138-29.806,7.997-43.43l11.893,2.006
			C1101.054,333.799,1098.391,348.258,1095.968,363.301z M1500.19,339.798c-6.503-14.026-13.056-27.447-19.483-39.887l10.981-4.561
			c6.492,12.57,13.112,26.123,19.677,40.282L1500.19,339.798z M1114.157,277.858l-11.741-2.63
			c4.221-15.154,8.874-29.428,13.831-42.426l11.45,3.511C1122.851,249.022,1118.295,263,1114.157,277.858z M1459.216,260.964
			c-7.959-13.443-16.09-26.062-24.166-37.508l10.226-5.803c8.239,11.678,16.524,24.537,24.629,38.221L1459.216,260.964z
			 M1145.871,196.553l-10.852-4.803c7.946-14.438,16.758-27.204,26.191-37.944l9.506,6.715
			C1161.804,170.668,1153.445,182.791,1145.871,196.553z M1407.314,188.258c-10.574-11.887-21.488-22.418-32.438-31.298l8.118-8.049
			c11.434,9.273,22.8,20.234,33.781,32.58L1407.314,188.258z M1204.479,132.393l-6.524-9.14
			c14.336-8.228,30.13-13.578,46.945-15.901l1.842,10.726C1231.605,120.168,1217.386,124.985,1204.479,132.393z M1336.693,132.386
			c-14.097-6.815-28.781-11.475-43.645-13.848l2.122-10.685c16.133,2.577,32.036,7.617,47.266,14.98L1336.693,132.386z"/>
		<path style="fill:#EEF7FF;" d="M2518.603,1267.53c-100.424-14.885-91.333,208.819-234.48,208.819
			c-130.879,0-200.914-499.8-344.536-398.147c-577.39,408.666-128.143-286.752-516.387-300.345
			c-175.553-6.146-292.532,181.043-335.67,512.47c-62.531,299.622-207.548-228.526-356.788-179.42
			c-94.849,31.209-83.987,365.443-214.865,365.443c-143.147,0-133.717-188.11-234.14-173.225
			c-108.122,16.026-133.46,307.684-133.46,307.684h2503.447C2651.723,1610.807,2626.725,1283.556,2518.603,1267.53z"/>
		<path style="fill:#DCE6FF;" d="M2422.375,1502.323c-92.387-6.356-77.312,51.069-209.003,51.069
			c-120.405,0-117.097-128.697-197.671-156.049c-148.381-50.37-270.709,204.557-328.236,76.615
			c-109.259-339.486-427.92-509.736-574.93,0c-57.527,127.942-192.053-100.352-328.236-76.615
			c-83.826,14.611-77.266,156.049-197.671,156.049c-131.692,0-116.616-57.425-209.003-51.069
			c-99.47,6.844-129.181,108.484-129.181,108.484h2303.111C2551.555,1610.807,2521.845,1509.167,2422.375,1502.323z"/>
	</g>
	<path id="_x39_" style="fill:#3A72AA;" d="M764.769,962.001c-67.926-76.72-120.851-155.731-161.644-228.553
		c10.638,6.246,58.954,8.88,59.774-1.487c0.773-11.643-57.744-15.99-65.007-7.95c-2.732-4.968-5.411-9.905-8.03-14.808
		c10.442,5.576,61.95,0.986,61.314-9.926c-1.03-11.621-59.489-6.915-65.446,2.14c-3.267-6.21-6.443-12.36-9.531-18.449
		c10.962,5.08,60.886,0.389,60.197-10.281c-1.143-11.435-57.427-7.01-64.645,1.426c-3.043-6.109-6.02-12.166-8.886-18.133
		c9.511,5.726,64.31-7.694,61.799-18.901c-2.802-11.414-60.975,2.929-64.586,13.036c-2.742-5.779-5.418-11.5-7.996-17.129
		c10.742,4.39,62.3-8.552,59.913-19.418c-2.959-11.069-57.484,2.194-63.447,11.618c-3.05-6.772-5.984-13.424-8.799-19.947
		c10.953,4.143,61.86-8.722,59.481-19.502c-2.958-10.962-56.519,1.977-63.031,11.218c-2.134-5.037-4.18-9.969-6.174-14.836
		c10.935,3.167,60.93-18.62,56.697-29.085c-4.719-10.211-54.515,11.03-59.931,21.127c-2.792-6.947-5.386-13.516-7.949-20.225
		c11.379,2.445,59.85-18.866,55.69-29.154c-4.603-9.996-52.71,10.278-59.099,20.163c-1.922-5.124-3.78-10.172-5.574-15.141
		c10.676,2.433,57.456-31.147,50.826-40.646c-6.702-8.845-49.868,21.733-53.646,32.762c-2.171-6.132-4.244-12.131-6.224-17.993
		c10.835,2.059,57.083-31.178,50.513-40.656c-6.613-8.756-49.095,21.189-53.333,32.21c-2.083-6.31-4.053-12.444-5.917-18.393
		c12.039-1.457,52.046-31.18,45.945-39.901c-5.412-8.063-42.739,16.661-49.817,27.307c-1.762-5.842-3.414-11.478-4.961-16.893
		c11.38-1.548,48.97-40.186,41.155-48.234c-6.809-7.049-39.62,24.056-44.643,35.761c-1.353-4.948-2.607-9.671-3.772-14.167
		c10.844,0.41,49.018-43.872,40.253-51.55c-7.757-6.693-39.604,28.546-43.042,40.531c-1.696-6.861-3.145-13.039-4.369-18.478
		c11.124-1.23,47.435-43.592,38.93-51.216c-7.052-6.543-37.296,25.874-41.808,37.883c-1.011-4.916-1.715-8.628-2.154-11.037
		c6.081-9.87,1.559-62.92-9.561-62.306c-5.174,0.409-8.183,15.743-6.72,34.249c1.247,21.859,7.81,25.268,10.251,41.42
		c-7.65-10.362-44.782-33.367-49.734-25.287c-6.597,9.714,42.794,43.293,52.787,39.346c1.146,5.054,2.479,10.715,4.01,16.926
		c-8.968-8.858-52.392-24.808-55.97-15.469c-4.148,10.803,49.132,32.222,58.985,27.387c1.374,5.298,2.875,10.917,4.507,16.827
		c-9.783-7.998-54.179-20.008-56.895-10.436c-3.085,10.995,50.199,27.342,60.281,22.445c1.563,5.431,3.23,11.077,5.004,16.918
		c-10.237-7.249-56.283-15.489-58.229-5.577c-2.051,11.173,51.922,22.553,61.754,16.991c1.699,5.409,3.487,10.971,5.363,16.672
		c-10.467-6.387-59.305-9.146-60.171,1.307c-0.595,11.367,54.614,15.666,63.546,8.805c1.755,5.188,3.58,10.478,5.483,15.874
		c-10.34-5.671-62.131-1.093-61.499,9.858c1.149,11.41,57.191,7.025,64.534-1.349c2.021,5.608,4.117,11.313,6.298,17.118
		c-9.888-6.063-62.889-1.539-62.272,9.574c1.072,11.56,58.793,6.948,65.184-1.904c2.407,6.312,4.84,12.48,7.443,18.982
		c-10.44-5.578-61.953-0.987-61.317,9.925c1.135,11.453,57.623,7.001,64.727-1.494c1.868,4.574,3.794,9.22,5.785,13.944
		c-11.433-3.525-60.739,9.16-58.364,19.71c2.928,10.773,54.889-1.612,62.279-10.521c2.441,5.678,4.951,11.431,7.571,17.3
		c-11.027-4.052-61.698,8.786-59.321,19.533c2.958,10.969,56.582-1.991,63.058-11.245c2.698,5.941,5.495,11.974,8.376,18.085
		c-10.271-4.928-63.155,8.196-60.731,19.216c2.91,11.233,59.075-2.533,64.016-12.279c2.683,5.609,5.46,11.296,8.299,17.032
		c-11.148-3.215-61.03,15.195-57.488,25.743c4.116,10.565,55.849-7.995,61.408-17.864c3.087,6.138,6.288,12.358,9.556,18.622
		c-9.945-4.83-63.302,14.493-59.578,25.389c4.061,10.966,59.516-9.212,62.627-19.556c3.466,6.566,7.05,13.204,10.718,19.89
		c-10.733-3.043-60.244,23.206-55.099,33.432c5.577,10.025,55.327-16.229,58.728-26.829
		c41.36,74.422,95.349,155.475,164.993,234.134L764.769,962.001z"/>
	<path id="_x38_" style="fill:#FCB4B4;" d="M787.317,905.83c-73.998-23.125-139.175-53.601-194.075-84.813
		c9.333-0.115,41.655-17.305,38.133-24.339c-4.052-7.843-43.652,12.226-45.212,20.273c-3.712-2.149-7.378-4.299-10.992-6.451
		c8.945-0.472,40.508-23.589,35.83-30.407c-5.212-7.124-41.234,18.786-41.551,26.98c-4.544-2.744-9.007-5.485-13.388-8.222
		c9.088-0.997,39.586-23.559,34.967-30.201c-5.212-6.958-39.935,17.918-41.311,26.205c-4.36-2.766-8.657-5.526-12.847-8.269
		c8.399-0.011,38.643-30.133,32.633-36.41c-6.279-6.296-38.346,25.743-36.733,33.702c-4.036-2.671-8.007-5.33-11.878-7.967
		c8.675-1.358,37.005-29.903,31.21-36.007c-6.245-6.011-36.372,23.901-36.549,32.338c-4.624-3.193-9.126-6.355-13.5-9.478
		c8.714-1.601,36.654-29.841,30.897-35.893c-6.202-5.943-35.833,23.384-36.436,31.916c-3.352-2.428-6.606-4.821-9.8-7.194
		c8.32-2.225,32.181-35.888,25.347-41.011c-7.051-4.767-30.994,28.464-30.554,37.121c-4.523-3.409-8.777-6.642-13.054-9.993
		c8.326-2.87,31.38-35.624,24.663-40.659c-6.889-4.674-30.117,27.268-30.391,36.169c-3.251-2.57-6.418-5.109-9.526-7.627
		c7.865-2.608,25.024-42.639,17.017-46.199c-7.798-3.107-23.794,33.567-21.933,42.191c-3.801-3.12-7.492-6.193-11.064-9.213
		c7.822-2.908,24.774-42.515,16.813-46.084c-7.707-3.085-23.509,32.919-21.946,41.716c-3.817-3.273-7.49-6.473-11.023-9.597
		c32.085-42.546,9.09-68.582-7.434-6.644c-3.424-3.093-6.701-6.098-9.819-8.999c6.764-5.454,15.999-45.177,7.79-47.333
		c-7.165-1.902-16.251,31.067-14.929,40.614c-2.809-2.674-5.47-5.242-7.981-7.697c7.182-3.979,14.587-47.582,5.908-49.127
		c-7.64-1.301-14.486,33.972-12.026,43.08c-3.778-3.777-7.138-7.215-10.055-10.256c6.723-5.148,13.674-46.784,5.184-48.395
		c-7.127-1.479-14.037,31.344-12.262,40.886c-2.59-2.801-4.487-4.919-5.712-6.307c0.078-8.771-23.597-41.361-30.559-36.614
		c-3.191,2.289,0.857,13.396,9.041,24.81c9.356,13.67,14.941,13.311,22.839,22.818c-9.007-3.719-42.053-4.098-42.102,3.072
		c-0.474,8.871,44.653,11.305,49.578,4.838c2.72,2.828,5.794,5.968,9.219,9.396c-9.273-2.232-43.638,4.42-42.305,11.87
		c1.538,8.62,44.431,1.654,48.917-5.333c2.968,2.9,6.122,5.942,9.498,9.139c-9.465-1.354-42.916,8.23-40.932,15.491
		c2.301,8.328,43.214-1.925,47.824-9.041c3.138,2.908,6.425,5.912,9.861,9.004c-9.465-0.694-42.517,11.978-39.902,19.16
		c3.041,8.039,42.45-5.699,46.642-13.147c3.214,2.838,6.554,5.743,9.998,8.701c-9.277-0.045-41.992,17.269-38.465,24.379
		c4.06,7.595,41.503-11.214,44.602-19.151c3.164,2.672,6.427,5.389,9.768,8.137c-8.913,0.364-40.678,23.59-35.987,30.438
		c5.207,6.942,39.797-17.822,41.272-26.117c3.507,2.846,7.084,5.719,10.773,8.63c-8.775-0.062-41.335,23.598-36.589,30.554
		c5.215,7.069,40.806-18.499,41.475-26.731c4.021,3.156,8.015,6.194,12.243,9.389c-8.944,0.47-40.512,23.589-35.833,30.408
		c5.215,6.974,40.06-18.001,41.338-26.282c2.999,2.232,6.063,4.488,9.2,6.769c-8.784,2.188-35.757,29.687-30.094,35.591
		c6.111,5.832,34.921-22.511,36.223-31.17c3.802,2.723,7.677,5.468,11.669,8.244c-8.727,1.688-36.525,29.819-30.782,35.85
		c6.205,5.947,35.868-23.418,36.444-31.944c4.071,2.792,8.242,5.607,12.498,8.438c-8.578,0.823-37.699,30.006-31.819,36.196
		c6.278,6.137,37.271-24.743,36.659-32.988c3.931,2.584,7.954,5.181,12.036,7.785c-8.478,2.278-33.585,33.709-27.166,39.156
		c6.798,5.233,33.045-27.019,32.786-35.585c4.4,2.768,8.905,5.545,13.472,8.324c-8.33,0.762-35.331,34.143-28.658,39.744
		c6.919,5.514,34.945-29.242,32.914-37.159c4.812,2.898,9.73,5.795,14.72,8.691c-8.142,2.227-29.943,38.591-22.611,43.201
		c7.532,4.312,29.487-32.148,27.544-40.344c55.893,32.027,122.558,63.408,198.426,87.118L787.317,905.83z"/>
	<path id="_x37_" style="fill:#FCB4B4;" d="M2261.506,544.752c9.875,23.194,16.74,44.151,18.713,55.945
		c5.627-13.506,11.094-25.972,16.375-37.464c-10.744-7.516-43.766-124.596-32.384-128.354
		c11.013-1.632,38.107,97.826,37.609,117.165c6.084-12.813,11.895-24.31,17.384-34.594c-10.218-3.821-19.68-134.251-7.607-134.249
		c5.105-0.342,11.271,29.581,13.769,66.836c1.591,23.736,1.307,44.706-0.427,56.9c7.443-13.37,14.209-24.403,20.167-33.425
		c-9.486-5.253,6.25-135.777,18.077-133.334c10.624,2.502-1.883,102.472-9.516,120.923c17.929-23.383,21.489-32.653,54.728-63.109
		c64.526-59.466,77.346-45.529,12.53,13.661c-31.36,30.876-44.185,27.581-63.809,57.784c15.07-9.716,120.077-33.529,123.911-22.733
		c2.345,11.792-119.486,37.953-129.573,31.086c-6.226,9.44-13.373,21.121-21.279,35.438c13.781-8.528,125.841-21.535,128.44-10.087
		c0.966,11.981-122.527,24.588-132.078,16.769c-5.698,10.595-11.75,22.495-18.105,35.848c15.575-8.122,123.672-20.489,126.319-9.269
		c0.241,11.931-117.417,23.906-130.135,17.393c-5.592,12.038-11.394,25.157-17.376,39.472c15.626-8.11,123.602-20.456,126.247-9.243
		c0.135,11.905-116.363,23.774-129.663,17.509c-4.893,11.944-9.896,24.677-14.989,38.228c14.48-8.376,125.045-21.15,127.681-9.783
		c0.342,11.947-118.249,24.013-130.482,17.295c-4.654,12.873-9.837,25.739-15.472,37.695c14.59-6.465,128.028-2.338,128.83,9.403
		c-1.356,11.895-121.507,5.796-131.975-2.849c-6.443,13.109-13.463,25.493-21.042,37.099c11.031-7.062,131.88,7.214,130.994,19.168
		c-0.805,12.037-130.007-4.956-133.522-15.344c-9.813,14.575-20.589,28.019-32.663,40.445c15.456-2.69,124.7,30.86,122.389,42.43
		c-4.11,11.279-120.91-26.438-127.35-37.463c-12.821,12.53-26.595,23.469-41.183,32.691c16.161,0.543,116.608,52.117,112.393,63.079
		c-6.033,10.377-114.335-47.164-118.803-59.159c-39.076,22.996-69.693,25.833-71.012,25.945l-0.635-7.447
		c0.305-0.026,29.75-2.817,66.802-24.328c-12.066-9.778-57.746-115.017-47.423-120.765c11.29-3.216,54.58,100.326,54.057,116.756
		c12.207-7.667,25.873-17.922,39.87-31.545c-11.801-3.729-69.624-113.412-59.101-119.216
		c11.038-4.547,64.711,101.065,63.142,115.194c10.849-11.026,21.82-24.115,32.394-39.604
		c-12.047-2.718-78.532-107.483-68.501-114.103c10.675-5.222,71.553,93.904,71.995,108.875
		c6.955-10.638,13.708-22.345,20.103-35.246c-10.965,0.947-80.447-108.918-69.874-114.733c10.624-5.46,72.813,95.853,72.21,109.911
		c5.373-11.217,10.567-23.566,15.249-36.448c-13.096-6.479-75.963-105.516-66.475-112.691
		c10.273-4.713,65.684,84.607,70.138,102.831c5.099-13.597,10.103-26.37,14.994-38.361c-11.448-4.332-61.027-118.471-50.063-123.405
		C2231.204,484.173,2246.879,510.398,2261.506,544.752z"/>
	<path id="_x36_" style="fill:#CE4ABF;" d="M1008.162,565.926c-1.046-8.93-87.159-8.909-98.435-3.644
		c5.795-9.844,11.651-22.017,16.51-36.624c8.046,5.317,100.967-9.884,99.735-18.978c-2.539-8.672-88.584,6.686-98.129,13.939
		c3.518-11.55,6.381-24.524,8.119-38.982c5.802,5.982,99.949-27.729,96.208-36.164c-3.594-8.433-90.918,24.121-95.829,32.785
		c1.081-10.169,1.615-21.035,1.423-32.647c10.064,2.259,94.023-35.614,90.727-44.147c-4.72-7.669-83.139,29.073-90.879,38.596
		c-0.318-9.775-1.291-20.566-2.637-31.036c10.598,0.343,87.14-49.357,82.675-57.321c-5.832-6.761-76.395,40.438-83.394,51.236
		c-1.269-10.992-2.313-21.396-3.157-31.225c11.161-0.335,86.357-49.177,82.044-57.181c-5.786-6.655-74.735,39.35-82.608,50.368
		c-0.931-11.821-1.567-22.767-1.968-32.904c10.854,0.035,86.798-49.28,82.405-57.266c-5.789-6.659-74.813,39.402-82.647,50.41
		c-0.342-11.298-0.382-21.502-0.208-30.695c9.175,2.015,88.83-49.74,83.944-57.521c-5.836-6.83-77.334,41.05-83.804,51.708
		c0.377-12.495,1.157-22.933,2.094-31.525c9.214,1.184,82.995-59.213,77.242-66.38c-6.442-5.948-69.382,46.801-76.309,58.724
		c2.783-27.346,12.681-29.659,23.208-61.57c23.396-62.855,9.827-67.891-13.289-4.91c-11.976,32.358-11.13,39.801-15.174,62.015
		c-1.22-15.137-27.685-87.616-35.754-85.537c-8.886,2.483,25.98,96.695,34.267,96.965c-0.901,8.214-1.648,18.077-2.041,29.766
		c-3.128-13.917-44.412-83.007-52.277-79.467c-8.196,4.231,43.759,89.573,52.049,88.619c-0.142,8.908-0.078,18.754,0.259,29.589
		c-6.353-13.263-59.619-71.539-66.481-66.526c-6.382,6.576,56.858,74.544,66.835,75.959c0.422,9.657,1.057,20.04,1.947,31.188
		c-6.586-11.78-70.101-65.125-76.513-59.1c-5.685,7.218,67.78,67.43,77.127,66.421c0.861,9.86,1.919,20.291,3.199,31.316
		c-9.313-10.794-78.325-52.254-83.592-45.422c-3.879,8.231,73.303,53.525,84.544,53.406c1.314,10.394,2.095,20.601,2.359,30.104
		c-4.431-9.731-82.219-56.971-87.474-49.511c-5.135,7.655,80.426,58.068,87.57,53.607c0.157,11.004-0.347,21.322-1.361,30.983
		c-5.453-9.983-81.599-56.202-86.966-48.883c-4.461,8.03,77.226,55.985,86.416,53.658c-1.781,14.223-4.669,26.953-8.196,38.238
		c-3.799-10.11-77.297-63.26-83.154-56.272c-5.082,7.651,72.437,61.967,81.81,60.417c-4.759,14.149-10.47,25.894-16.093,35.369
		c-5.307-11.297-71.035-66.688-77.522-60.507c-4.949,7.565,62.726,63.053,74.412,65.549c-17.665,27.538-36.69,39.718-36.922,39.865
		l3.031,4.842c0.857-0.536,20.684-13.155,39.221-42.435C913.892,573.779,1007.744,575.091,1008.162,565.926z"/>
	<g id="_x35_">
		<path style="fill:#8A9EDD;" d="M669.89,1630.666c-50.233,0-90.955-40.722-90.955-90.955V584.299
			c0-50.233,40.722-90.955,90.955-90.955H2064.64c50.233,0,90.955,40.722,90.955,90.955v955.412
			c0,50.233-40.722,90.955-90.955,90.955H669.89z"/>
		<rect x="661.206" y="571.259" style="fill:#FFFFFF;" width="1412.119" height="981.492"/>
		<rect x="717.862" y="627.916" style="fill:#D7DEFF;" width="1298.806" height="868.179"/>
		<polygon style="fill:#FFFFFF;" points="2056.001,1082.401 2056.001,1059.739 1725.073,1059.739 1483.314,1233.984 
			888.587,1233.984 886.342,859.856 1080.047,1053.561 1112.097,1021.511 929.529,838.943 2029.617,838.943 2029.617,816.281 
			908.81,816.281 908.81,609.622 863.485,609.622 863.485,816.281 863.417,816.281 863.485,827.591 863.485,837 863.542,837.056 
			864.609,1014.874 687.317,1014.874 687.317,1060.198 864.881,1060.198 865.924,1233.984 687.317,1233.984 687.317,1279.311 
			866.196,1279.311 867.65,1521.617 890.313,1521.48 888.859,1279.311 1465.767,1279.311 1465.767,1521.549 1488.429,1521.549 
			1488.429,1279.311 1712.168,1279.311 1834.448,1336.109 1656.223,1514.335 1688.271,1546.385 1878.218,1356.439 2020.07,1422.329 
			2039.164,1381.222 1722.181,1233.984 1522.073,1233.984 1732.39,1082.401 		"/>
		<polygon style="fill:#8A9EDD;" points="1135.732,1496.095 1056.413,1496.095 1056.413,997.877 1652.335,997.877 1652.335,827.612 
			1731.653,827.612 1731.653,1077.195 1135.732,1077.195 		"/>
		<g>
			<path style="fill:#EB5648;" d="M1742.185,830.93c-0.308,68.472-104.415,68.466-104.713-0.003
				C1637.779,762.459,1741.886,762.465,1742.185,830.93z"/>
			<path style="fill:#FFFFFF;" d="M1718.222,830.93c0.538,36.84-57.33,36.84-56.787-0.003
				C1660.896,794.091,1718.764,794.09,1718.222,830.93z"/>
			<path style="fill:#EB5648;" d="M1806.365,539.601c8.215,98.085-116.537,225.05-116.537,225.05
				C1387.977,444.185,1786.399,301.219,1806.365,539.601z"/>
			<path style="fill:#FFFFFF;" d="M1754.3,538.117c-1.448,84.748-127.508,84.735-128.943-0.003
				C1626.804,453.369,1752.865,453.383,1754.3,538.117z"/>
		</g>
		<g>
			<polygon style="fill:#EB5648;" points="1096.078,1114.214 1096.078,1352.353 938.958,1386.347 			"/>
			<polygon style="fill:#D33F37;" points="1253.186,1386.347 1096.078,1352.353 1096.078,1114.214 			"/>
		</g>
	</g>
	<g id="_x34_">
		<path style="fill:#EB5648;" d="M1372.623,1333.259l-37.611,110.673h690.958l-84.847-143.774
			c-27.823-47.146-74.788-75.485-125.096-75.485H1373.59c-9.134,0-14.016,10.817-7.921,17.62c7.63,8.515,24.63,21.021,47.07,25.426
			C1395.28,1285.288,1381.358,1307.557,1372.623,1333.259z"/>
		<rect x="1256.434" y="1587.744" style="fill:#CE3932;" width="50.811" height="20.632"/>
		<path style="fill:#F9B233;" d="M2227.681,1535.223c-1.379,10.755-8.303,20.503-19.022,24.984l-1.512,0.626
			c-0.007,0.006-0.007,0.006-0.007,0.006l-24.797-57.709l2.107-0.812c15.984-6.69,34.366,0.85,41.049,16.84
			C2227.701,1524.422,2228.358,1529.945,2227.681,1535.223z"/>
		<path style="fill:#FFC261;" d="M2227.681,1535.223c-1.379,10.755-8.303,20.503-19.022,24.984l-1.512,0.626
			c0.308-0.357,13.818-16.165,7.424-35.144c-6.467-19.196-32.228-22.56-32.228-22.56l2.107-0.812
			c15.984-6.69,34.366,0.85,41.049,16.84C2227.701,1524.422,2228.358,1529.945,2227.681,1535.223z"/>
		<path style="fill:#F9B233;" d="M1259.913,1541.243c4.088,10.042,13.279,17.691,24.789,19.276l1.622,0.218
			c0.009,0.004,0.009,0.004,0.009,0.004l9.183-62.136l-2.245-0.245c-17.165-2.372-33.001,9.627-35.364,26.795
			C1257.126,1530.807,1257.907,1536.314,1259.913,1541.243z"/>
		<path style="fill:#FFC261;" d="M1259.913,1541.243c4.088,10.042,13.279,17.691,24.789,19.276l1.622,0.218
			c-0.389-0.266-17.498-12.085-16.18-32.069c1.333-20.212,25.372-30.064,25.372-30.064l-2.245-0.245
			c-17.165-2.372-33.001,9.627-35.364,26.795C1257.126,1530.807,1257.907,1536.314,1259.913,1541.243z"/>
		<circle style="fill:#245084;" cx="1412.268" cy="1642.162" r="79.126"/>
		<circle style="fill:#2C6399;" cx="1412.268" cy="1642.162" r="38.981"/>
		<circle style="fill:#245084;" cx="2049.818" cy="1642.162" r="79.126"/>
		<circle style="fill:#2C6399;" cx="2049.818" cy="1642.162" r="38.981"/>
		<path style="fill:#EB5648;" d="M2224.045,1627.073c-3.009,8.708-11.295,15.089-21.198,15.089h-64.401
			c0-5.144-0.44-10.186-1.279-15.089c-7.164-41.756-43.547-73.538-87.348-73.538s-80.183,31.781-87.342,73.538h-0.006
			c-0.838,4.903-1.279,9.944-1.279,15.089h-460.301c0-5.144-0.44-10.186-1.279-15.089h-0.006
			c-7.158-41.756-43.535-73.538-87.342-73.538c-24.472,0-46.629,9.92-62.67,25.962c-16.035,16.036-25.956,38.192-25.956,62.664
			c-6.459,0-12.586-1.417-18.092-3.962c-14.829-6.845-25.118-21.843-25.118-39.254v-50.332c0-72.102,58.449-130.551,130.551-130.551
			h620.04c155.53,0,187.523,140.84,194.102,199.216C2225.51,1620.71,2225.1,1624.033,2224.045,1627.073z"/>
		<path style="fill:#CE3932;" d="M1406.069,1433.418l33.245-100.121l0.074-0.2c7.346-19.854,19.189-37.995,34.247-52.463
			c14.29-13.727,31.639-24.29,50.174-30.549c4.909-1.665,9.972-3.047,15.034-4.104c8.85-1.875,17.981-2.83,27.103-2.83h248.797
			c0.464,0,0.935,0.002,1.4,0.014c44.971,0.475,86.652,23.848,111.513,62.542l0.155,0.243l73.83,127.468H1406.069z"/>
		<path style="fill:#C3DCFC;" d="M1976.083,1418.063h-548.764l27.295-80.672c6.778-17.977,17.41-33.645,30.726-46.201
			c12.839-12.103,28.169-21.3,44.946-26.86c4.384-1.459,8.871-2.666,13.436-3.6c7.888-1.64,16.011-2.491,24.279-2.491h245.091
			c0.38,0,0.766,0,1.146,0.012c40.243,0.38,77.711,20.974,99.994,55.011L1976.083,1418.063z"/>
		<path style="fill:#DCEDFF;" d="M1592.443,1418.063h-55.802l-51.303-126.873c12.839-12.103,28.169-21.3,44.946-26.86
			L1592.443,1418.063z"/>
		<path style="fill:#DCEDFF;" d="M1634.965,1418.063h-27.626l-63.617-157.333c7.888-1.64,16.011-2.491,24.279-2.491h2.34
			L1634.965,1418.063z"/>
		<polygon style="fill:#DCEDFF;" points="1836.341,1418.063 1780.533,1418.063 1715.909,1258.239 1771.716,1258.239 		"/>
		<path style="fill:#DCEDFF;" d="M1878.857,1418.063h-27.626l-64.618-159.824h26.48c0.38,0,0.766,0,1.146,0.012L1878.857,1418.063z"
			/>
		<rect x="1689.999" y="1461.855" style="fill:#CE3932;" width="36.954" height="18.355"/>
		<rect x="1562.508" y="1461.855" style="fill:#CE3932;" width="36.954" height="18.355"/>
		<path style="fill:#CE3932;" d="M2155.544,1627.073c-15.497-120.102-195.98-120.032-211.455,0h-308.503v-75.959
			c0-45.197,16.121-89.052,45.392-123.489l2.185-2.57v-180.21h-18.356v173.506c-30.705,37.343-47.578,84.352-47.578,132.763v75.959
			h-99.234c-10.457-77.92-87.456-104.182-145.788-82.762c0.804-36.628,9.592-67.086,25.55-88.332
			c12.485-16.623,25.148-21.951,25.275-22.003l-0.068,0.027l-6.689-17.093c-0.675,0.264-16.707,6.699-32.245,26.8
			c-13.798,17.848-30.245,53.675-30.245,109.078l0.696-0.111c-27.504,16.174-47.688,44.859-48.935,85.522
			c5.506,2.545,11.633,3.962,18.092,3.962c3.149-117.336,174.562-116.374,177.253,0h116.338v0h18.356v0h325.608
			c1.805-116.422,175.47-116.384,177.253,0h64.401c9.902,0,18.188-6.38,21.198-15.089H2155.544z"/>
		<path style="fill:#CE3932;" d="M2118.662,1476.264h-99.159c-2.762,0-5.001-2.239-5.001-5.001c0-2.762,2.239-5.001,5.001-5.001
			h99.159c2.762,0,5.001,2.239,5.001,5.001C2123.663,1474.025,2121.424,1476.264,2118.662,1476.264z"/>
		<path style="fill:#CE3932;" d="M2118.662,1494.356h-99.159c-2.762,0-5.001-2.239-5.001-5.001c0-2.762,2.239-5.001,5.001-5.001
			h99.159c2.762,0,5.001,2.239,5.001,5.001C2123.663,1492.117,2121.424,1494.356,2118.662,1494.356z"/>
		<path style="fill:#CE3932;" d="M2118.662,1512.448h-99.159c-2.762,0-5.001-2.239-5.001-5.001s2.239-5.001,5.001-5.001h99.159
			c2.762,0,5.001,2.239,5.001,5.001S2121.424,1512.448,2118.662,1512.448z"/>
	</g>
	<g id="_x33_">
		<path style="fill:#F99370;" d="M380.122,1717.089l-0.986-0.515c0,0.69-0.854,3.088-1.544,3.088l-29.167,0.601
			c-0.69,0-1.115-1.3-1.115-1.99l-2.488-0.712c0-4.368,0.359-5.951,2.289-9.331c7.091-9.425-1.374-51.576-1.129-62.588
			c-1.749-3.011,30.715-0.649,31.168-1.36c0.729,0.001,1.304,0.623,1.246,1.35l-3.821,48.164
			C372.86,1702.94,379.878,1708.468,380.122,1717.089z"/>
		<path style="fill:#F99370;" d="M524.387,1721.286h-58.098c-5.072-0.204-5.033-5.377-4.098-9.388
			c3.199-14.458-2.456-47.657-3.504-62.526c-0.279-2.723,1.858-5.089,4.595-5.089c42.87-0.436,28.883-3.869,25.561,42.376
			c-2.535,16.153,16.733,19.232,27.719,21.018C523.795,1708.2,535.89,1718.072,524.387,1721.286z"/>
		<path style="fill:#103663;" d="M459.979,1715.259c0.157,2.849,1.569,6.098,4.869,6.027c0,0,60.264,0,60.264,0
			c14.214-5.272-7.084-24.13-34.908-24.018C470.421,1702.698,459.309,1687.276,459.979,1715.259z"/>
		<path style="fill:#103663;" d="M349.442,1721.286h25.757c12.553-1.714,3.509-25.797-12.875-24.056
			C345.894,1695.15,336.899,1719.595,349.442,1721.286z"/>
		<path style="fill:#E8C0A6;" d="M510.746,1713.131c0.506,0,0.985-0.302,1.187-0.801c2.316-5.715,6.492-7.463,6.669-7.535
			c3.257-5.14-6.208-1.478-9.042,6.574C509.207,1712.187,509.86,1713.147,510.746,1713.131z"/>
		<path style="fill:#E8C0A6;" d="M500.795,1711.93c0.547,0,1.053-0.353,1.224-0.903c2.047-6.618,7.81-9.677,7.868-9.706
			c2.953-5.973-8.05,0.422-10.315,8.95C499.307,1711.076,499.951,1711.943,500.795,1711.93z"/>
		<path style="fill:#E8C0A6;" d="M489.47,1710.538c0.53,0,1.025-0.331,1.21-0.86c2.391-6.873,7.913-10.616,7.969-10.653
			C501.916,1690.201,483.883,1708.178,489.47,1710.538z"/>
		<path style="fill:#E8C0A6;" d="M353.086,1704.888c7.155-4.34,18.13-0.429,18.172-0.114c7.471-1.61-10.196-7.916-18.82-2.272
			C351.314,1703.11,351.83,1704.935,353.086,1704.888z"/>
		<path style="fill:#0F2E54;" d="M529.329,1715.259h-69.35c0.255,2.117,0.84,4.173,1.902,6.028h63.231
			C528.226,1721.291,530.435,1718.169,529.329,1715.259z"/>
		<path style="fill:#0F2E54;" d="M349.442,1721.286h25.757c3.277,0.004,5.914-2.758,5.712-6.028H343.73
			C343.531,1718.528,346.165,1721.291,349.442,1721.286z"/>
		<path style="fill:#C92828;" d="M493.369,1131.917c0,0,6.311-17.701-8.707-26.306l-11.395,5.895L493.369,1131.917z"/>
		<path style="fill:#3A72AA;" d="M482.923,1274.757c56.714,43.292,127.713,33.619,167.95,3.505l2.099-20.578
			c-92.807,7.191-115.353-37.315-175.085-64.325C477.886,1193.359,482.29,1273.37,482.923,1274.757z"/>
		<path style="fill:#9358E0;" d="M340.371,1664.324c0.097,4.039,0.207,8.114,0.341,12.25c0,0,21.849,14.416,43.393,4.343
			c8.43-45.894,26.405-144.205,44.549-262.757c0.232-3.486,32.883,158.949,21.613,266.516c0,0,24.233,6.253,46.094-1.946
			c15.36-54.881,15.892-154.469,4.919-362.828c0,0-65.631-3.698-113.368-27.372C346.771,1340.25,335.403,1584.671,340.371,1664.324z
			"/>
		<path style="fill:#F99370;" d="M472.219,1191.228c2.721-14.387,9.326-40.268-1.494-46.649c-7.62-4.173-18.362,1.106-17.409,10.646
			c0.812-0.338-1.222,26.064-4.06,33.01C426.819,1191.044,487.503,1222.937,472.219,1191.228z"/>
		<path style="fill:#E57D61;" d="M453.298,1154.006c-0.011,0.405-0.008,0.818,0.019,1.22c0.588-0.261-0.349,14.337-2.091,24.753
			c9.036,6.099,20.276,5.981,22.342,5.907c1.642-15.322,7.514-34.275-2.845-41.306
			C463.635,1140.026,453.356,1145.454,453.298,1154.006z"/>
		<path style="fill:#F99370;" d="M439.537,1141.823c-0.07,10.475,1.433,22.547,8.349,30.65h0.012
			c0.282,0.329,0.564,0.634,0.869,0.939c0,0.012,0.012,0.012,0.012,0.023c10.464,9.924,27.048,11.68,40.303,4.063h0.012
			c10.663-7.058,15.536-18.155,12.189-27.902c-2.29-5.801-7.351-11.414-7.915-17.685
			C489.954,1093.88,439.77,1101.296,439.537,1141.823z"/>
		<path style="fill:#C16256;" d="M479.508,1142.093c1.232-1.615-1.333-3.512-2.516-1.862
			C475.76,1141.846,478.324,1143.744,479.508,1142.093z"/>
		<path style="fill:#C16256;" d="M492.851,1142.099c1.232-1.615-1.333-3.512-2.517-1.862
			C489.103,1141.852,491.667,1143.749,492.851,1142.099z"/>
		<path style="fill:#E57D61;" d="M439.537,1141.823c-0.07,10.475,1.433,22.547,8.349,30.65h0.012
			c0.282,0.329,0.564,0.634,0.869,0.939c-8.206-16.43-6.001-19.817-2.302-31.249c12.091-8.602,11.665-20.342,22.985-20.295
			c11.321,0.035,20.559-1.5,20.559-1.5C477.315,1093.335,439.373,1108.977,439.537,1141.823z"/>
		<path style="fill:#C16256;" d="M486.978,1154.801c2.577-0.068,5.887-1.253,3.1-3.941c-2.648-2.07-3.774-8.476-3.786-8.54
			c-2.64-2.454,0.044,7.162,3.056,9.473c2.052,1.787-2.944,2.34-4.794,1.316C481.881,1153.533,485.833,1155.139,486.978,1154.801z"
			/>
		<path style="fill:#23659B;" d="M364.336,1363.466c31.774,24.041,107.15,30.296,138.877,18.811
			c10.694-4.529,12.191-40.55,10.95-75.927c-1.902-47.156-13.395-81.247-35.157-112.759c-0.268-0.109-4.404-1.946-6.776-2.348
			c0.105,4.307-0.879,16.759-22.968-3.005c-0.098,0.085-6.595-0.787-8.625,0.085c-2.117,1.606-26.034,17.165-26.642,19.696
			c-1.801,7.567-9.878,26.289-18.71,48.114c-10.21,25.521-20.676,51.671-25.17,75.57
			C368.363,1341.641,358.035,1354.098,364.336,1363.466z"/>
		<path style="fill:#C92828;" d="M437.732,1127.693c3.558-29.965,22.09-29.06,22.09-29.06l0,0.002
			c15.948-21.24,51.505-10.596,36.702,13.279c-8.399,14.705-29.881-1.689-42.563,17.151c-5.097,7.572-8.249,12.242-17.089,16.124
			C436.87,1145.189,435.71,1135.804,437.732,1127.693z"/>
		<path style="fill:#F99370;" d="M432.193,1145.884c0.359,11.921,15.396,11.298,14.769-0.612
			C446.603,1133.353,431.565,1133.975,432.193,1145.884z"/>
		<path style="fill:#C16256;" d="M486.601,1163.309c2.127,0.205,4.046-0.884,2.106-1.405c-0.242,0.065-6.032,1.546-12.1-4.08
			c-0.239-0.223-0.615-0.209-0.837,0.032C477.56,1162.368,484.863,1163.278,486.601,1163.309z"/>
		<path style="fill:#3A72AA;" d="M440.962,1188.474c7.272,12.401,39.376,31.721,38.052,5.127c-0.271-0.126-4.395-1.953-6.783-2.36
			c0.049,0.698,1.314,18.989-22.973-3.008C449.285,1188.417,442.781,1187.246,440.962,1188.474z"/>
		<path style="fill:#7640CC;" d="M482.671,1674.268c25.458-125.306-1.415-286.812-5.491-288.009
			c-2.089,0.975,21.325,163.3,5.162,288.05c-9.408,1.165-21.01,0.981-30.797-4.073c-0.389,4.842-0.815,9.659-1.277,14.44
			c0,0,24.233,6.253,46.094-1.946c0,0,1.435-4.185,3.698-12.494C500.059,1670.236,492.637,1672.994,482.671,1674.268z"/>
		<path style="fill:#7640CC;" d="M364.559,1671.818c21.46-136.2,44.783-290.357,41.795-292.694
			c-3.103,0.435-26.926,157.381-42.178,292.654c-7.249-0.713-15.571-2.758-23.805-7.454c0.097,4.039,0.207,8.114,0.341,12.25
			c0,0,21.849,14.416,43.393,4.343c0,0,0.706-3.771,1.971-10.681C386.076,1670.236,376.932,1672.961,364.559,1671.818z"/>
		<path style="fill:#3A72AA;" d="M399.298,1200.717c0,0-32.236,25.493-39.556,67.361c-11.393,65.162,19.589,100.742,85.919,118.771
			c0,0,2.076-8.198,10.997-10.815c0,0-31.755-24.515-39.75-53.843c-7.995-29.328-4.13-71.635,11.127-88.259
			C428.036,1233.932,416.068,1206.514,399.298,1200.717z"/>
		<path style="fill:#1D3F70;" d="M421.534,1191.629c7.158-7.729,20.013-8.277,22.25-0.962c7.069,23.118,17.346,44.042,20.824,50.839
			c1.043-0.683,2.472-0.996,3.677-1.045c16.511-23.587,12.809-45.534,12.809-45.534c10.258-0.701,16.98,3.262,20.625,9.508
			c17.818,6.54,15.669,20.604-0.625,31.179c-3.805,8.382-10.242,15.876-18.829,19.908c6.229,14.277,13.761,36.843,5.196,41.169
			c-3.861,3.649-13.405,5.299-13.643-5.353c-0.197-8.807-0.675-22.217-1.748-30.525c-0.878,0.123-1.865,0.065-2.977-0.234
			c0.009,0.005-1.267,29.461,3.593,47.886c4.856,18.419-17.949,14.919-25.434,8.881c-5.873-4.738-0.73-42.186,7.823-62.435
			c-5.168-2.82-10.442-7.017-15.365-11.923l0.003,0.011C430.421,1233.59,366.202,1197.412,421.534,1191.629z"/>
		
			<rect x="349.039" y="1336.658" transform="matrix(0.8074 -0.59 0.59 0.8074 -691.2794 579.0817)" style="fill:#EB5648;" width="384.648" height="23.487"/>
		
			<rect x="366.689" y="1390.732" transform="matrix(0.8074 -0.59 0.59 0.8074 -737.4354 545.8329)" style="fill:#CE3932;" width="201.334" height="23.487"/>
		
			<ellipse transform="matrix(0.7071 -0.7071 0.7071 0.7071 -577.3693 911.2923)" style="opacity:0.4;fill:#FFFFFF;" cx="811.342" cy="1152.593" rx="141.191" ry="141.191"/>
		<path style="opacity:0.4;fill:#FFFFFF;" d="M955.349,1203.92c-4.956,13.979-11.965,27.31-20.948,39.491l-8.389-8.389l-8.441-8.441
			l-180.207-180.208l-16.836-16.836c0.536-0.392,1.079-0.785,1.621-1.177c11.906-8.552,24.643-15.143,37.811-19.831l9.258,9.265
			l9.52,9.52h0.007l157.827,157.827l9.546,9.546L955.349,1203.92z"/>
		<path style="opacity:0.4;fill:#FFFFFF;" d="M920.317,1259.913c-6.002,6.094-12.606,11.762-19.785,16.915
			c-12.266,8.807-25.414,15.535-39.007,20.249l-9.304-9.304l-9.578-9.579l-156.912-156.918l-9.539-9.533l-9.35-9.35
			c7.676-22.25,20.34-42.283,37.17-58.792l16.614,16.614l183.078,183.084l8.316,8.317L920.317,1259.913z"/>
		<path style="fill:#CE3932;" d="M935.571,1063.399c-77.959-110.668-255.433-67.452-275.142,64.418
			c-22.046,110.747,97.566,209.385,201.099,169.255C955.506,1266.387,995.997,1144.639,935.571,1063.399z M936.571,1185.142
			c-10.892,44.794-49.223,82.613-93.929,93.052c-125.883,31.808-215.777-126.155-122.014-217.98
			C813.216,968.934,969.754,1059.609,936.571,1185.142z"/>
		<path style="fill:#F99370;" d="M664.193,1276.769c5.969,4.822,11.246-3.496,2.903-4.426l0.107,0.08
			C663.931,1269.867,661.071,1274.449,664.193,1276.769z"/>
		<path style="fill:#F99370;" d="M668.386,1273.742c7.741,4.17,9.969-6.301,2.465-4.903c0.168,0.012-0.714-0.177-0.558-0.158
			C666.537,1266.81,665.047,1272.186,668.386,1273.742z"/>
		<path style="fill:#F99370;" d="M672.879,1270.711l2.878,0.552c4.046,0.629,3.506-5.268,0.121-5.691c0,0-2.877-0.552-2.877-0.552
			C668.955,1264.39,669.495,1270.288,672.879,1270.711z"/>
		<path style="fill:#F99370;" d="M676.369,1267.467l2.877,0.552c4.046,0.629,3.506-5.269,0.121-5.691c0,0-2.877-0.553-2.877-0.553
			C672.445,1261.147,672.985,1267.045,676.369,1267.467z"/>
		<path style="fill:#F99370;" d="M480.046,1379.916l-5.646,4.067c0.025,0.039,0.05,0.077,0.075,0.116
			c2.433,3.721,5.725,6.799,9.571,9.027c3.724,2.158,7.377,4.289,11.48,5.957c5.377,8.058-16.64-1.688-19.38-2.255
			c-0.024,0.051-0.021,0.044-0.046,0.095c5.053,4.424,10.375,8.556,16.034,12.175c3.629,9.633-17.622-6.575-20.159-8.022
			c-0.015,0.023-0.013,0.02-0.029,0.043c3.993,5.023,8.642,9.525,13.74,13.425c2.801,10.085-17.43-8.131-19.393-10.357
			c-0.025,0.01-0.049,0.02-0.074,0.031c2.536,4.451,5.669,8.556,9,12.449c1.33,9.917-13.876-8.611-15.391-10.838
			c-1.604-0.888-9.467-8.306-14.168-18.981c-1.54-3.498,7.867-12.769,10.997-10.815c2.349,1.466,9.947,1.467,11.597,1.947
			C472.099,1378.522,476.074,1378.414,480.046,1379.916z"/>
		<path style="fill:#C16256;" d="M472.576,1138.041c-0.142,0-0.285-0.051-0.397-0.155c-0.239-0.219-0.255-0.591-0.035-0.829
			c3.546-3.86,8.555-3.6,8.763-3.587c0.324,0.02,0.569,0.298,0.55,0.621c-0.02,0.323-0.312,0.566-0.621,0.551
			c-0.043-0.003-4.671-0.227-7.827,3.209C472.893,1137.977,472.735,1138.041,472.576,1138.041z"/>
		<path style="fill:#C16256;" d="M493.177,1136.339c-0.127,0-0.256-0.041-0.363-0.126c-0.027-0.021-2.763-2.136-6.048-1.584
			c-0.319,0.054-0.622-0.161-0.677-0.482c-0.054-0.319,0.162-0.623,0.482-0.677c3.81-0.64,6.845,1.72,6.972,1.821
			c0.254,0.201,0.296,0.569,0.096,0.824C493.522,1136.262,493.351,1136.339,493.177,1136.339z"/>
		<path style="fill:#C16256;" d="M442.833,1141.78c0.412-1.214-3.352-2.743-6.068-1.36c-1.387,0.621-3.245,5.661-1.201,8.488
			c0.354,0,0.637-0.317,0.588-0.67c-0.323-2.482-0.208-4.356,0.308-5.572c0.048,0.025,0.094,0.054,0.149,0.066
			c0.16,0.036,3.922,0.933,4.879,6.291c0.056,0.317,0.332,0.539,0.643,0.539c0.038,0,0.077-0.003,0.116-0.01
			c0.356-0.064,0.592-0.403,0.529-0.759c-0.95-5.323-4.397-6.866-5.528-7.235c0.056-0.046,0.105-0.105,0.165-0.144
			C439.988,1139.949,441.896,1142.82,442.833,1141.78z"/>
	</g>
	<g id="_x32_">
		<path style="fill:#C92828;" d="M1310.96,208.964c0,0,8.693-16.793,35.19-11.835c26.496,4.958,32.75,38.58,41.743,53.884
			c19.05,32.419,24.757,66.866,14.86,83.414c-10.991,18.379-35.263,11.192-70.709,7.897c-37.826-3.517-53.672-36.347-30.142-81.488
			L1310.96,208.964z"/>
		<path style="fill:#3A72AA;" d="M1321.955,287.02c-10.362,15.192-16.98,89.271-17.195,95.027
			c-12.189-0.901-41.474-3.065-53.961-3.988c-3.527-27.118,32.428-82.731,65.224-89.319c0-0.009,0-0.009,0-0.009
			C1319.715,287.477,1321.955,287.02,1321.955,287.02z"/>
		<path style="fill:#F99370;" d="M1168.297,695.415l52.686-0.578c-0.135-8.421-2.379-25.423-0.707-35.032
			c-0.001,0-22.743,2.934-22.743,2.934c0.631,4.616,2.031,14.627-5.631,17.023c-9.926,3.104-20.733,2.149-26.927,9.787
			C1163.366,692.114,1165.269,695.448,1168.297,695.415z"/>
		<path style="fill:#1D3F70;" d="M1222.529,689.746c-0.195,1.784-0.668,3.52-1.545,5.091l-53.199,0.584
			c-2.587,0.028-4.487-2.497-3.656-4.947c1.957-5.725,8.879-14.079,33.386-15.63c0,0,8.37,2.391,22.058-0.242
			C1219.574,674.602,1223.332,682.514,1222.529,689.746z"/>
		<path style="fill:#E8C0A6;" d="M1179.769,688.424c-0.421,0-0.821-0.249-0.994-0.662c-2.003-4.788-5.535-6.221-5.684-6.28
			c-2.823-4.292,5.228-1.304,7.672,5.448C1181.07,687.62,1180.517,688.438,1179.769,688.424z"/>
		<path style="fill:#E8C0A6;" d="M1188.133,687.321c-0.456,0-0.879-0.292-1.026-0.748c-1.785-5.551-6.664-8.072-6.714-8.097
			c-2.574-4.998,6.794,0.279,8.765,7.436C1189.391,686.593,1188.848,687.332,1188.133,687.321z"/>
		<path style="fill:#E8C0A6;" d="M1197.65,686.045c-0.442,0-0.855-0.274-1.014-0.713c-2.075-5.762-6.758-8.861-6.805-8.892
			c-1.997-5.246,6.527,1.048,8.833,8.161C1198.927,685.286,1198.379,686.058,1197.65,686.045z"/>
		<path style="fill:#395B96;" d="M1164.159,690.387l58.37-0.641c-0.195,1.784-0.668,3.52-1.545,5.091l-53.199,0.584
			C1165.162,695.454,1163.254,692.849,1164.159,690.387z"/>
		<path style="fill:#3A72AA;" d="M1335.208,494.269c-25.932-1.09-71.106-15.372-90.591,17.619
			c-21.332,36.031-16.11,112.468-13.953,149.407c-28.468,9.167-43.772,0-43.772,0c-12.128-75.616-52.069-247.854,81.49-223.956
			c-0.003-0.005,89.568-0.005,89.568-0.005C1372.932,467.871,1359.536,493.759,1335.208,494.269z"/>
		<path style="fill:#F99370;" d="M1231.476,695.412l52.686-0.578c-0.135-8.422-2.378-25.423-0.707-35.032
			c-0.002,0-22.742,2.937-22.742,2.937c0.631,4.616,2.209,14.627-5.631,17.019c-9.947,3.036-20.733,2.149-26.927,9.787
			C1226.546,692.111,1228.448,695.445,1231.476,695.412z"/>
		<path style="fill:#1D3F70;" d="M1285.708,689.743c-0.195,1.784-0.668,3.52-1.545,5.091l-53.199,0.584
			c-2.587,0.028-4.487-2.497-3.656-4.947c1.958-5.725,8.879-14.079,33.386-15.63c0,0,8.37,2.391,22.058-0.242
			C1282.753,674.599,1286.511,682.511,1285.708,689.743z"/>
		<path style="fill:#E8C0A6;" d="M1242.948,688.421c-0.421,0-0.821-0.249-0.994-0.662c-2.002-4.788-5.535-6.221-5.684-6.28
			c-2.823-4.292,5.228-1.304,7.672,5.448C1244.249,687.617,1243.697,688.435,1242.948,688.421z"/>
		<path style="fill:#E8C0A6;" d="M1251.312,687.318c-0.456,0-0.879-0.292-1.026-0.748c-1.785-5.551-6.664-8.072-6.713-8.097
			c-2.574-4.998,6.794,0.279,8.765,7.436C1252.57,686.59,1252.027,687.328,1251.312,687.318z"/>
		<path style="fill:#E8C0A6;" d="M1260.83,686.042c-0.442,0-0.855-0.274-1.014-0.713c-2.075-5.762-6.758-8.861-6.805-8.891
			c-1.997-5.246,6.527,1.048,8.833,8.161C1262.106,685.283,1261.558,686.055,1260.83,686.042z"/>
		<path style="fill:#395B96;" d="M1227.338,690.384l58.37-0.641c-0.195,1.784-0.668,3.52-1.545,5.091l-53.199,0.584
			C1228.341,695.451,1226.433,692.846,1227.338,690.384z"/>
		<path style="fill:#23659B;" d="M1275.673,437.334l-7.661,55.842c-33.49,13.19-35.743,49.364-38.799,89.033
			C1213.704,520.922,1214.893,458.036,1275.673,437.334z"/>
		<path style="fill:#3A72AA;" d="M1368.957,496.858c-27.139,16.706-54.242-1.523-73.328,37.008
			c-15.403,33.735-6.766,98.203-2.536,127.429c-28.468,9.167-43.773,0-43.773,0c-16.88-65.229-55.484-216.818,53.604-223.958
			c29.871-0.951,69.123-0.69,95.524-2.28C1398.449,435.056,1405.779,474.191,1368.957,496.858z"/>
		<path style="fill:#3A72AA;" d="M1398.977,419.627c2.314,16.521-1.042,35.728-1.042,35.728
			c-35.265-11.21-67.324-12.247-120.891-19.729c33.83-101.333-44.528-30.43,44.911-148.607c0.215,0.018,21.944,1.985,22.141,1.998
			C1369.242,307.931,1385.441,333.006,1398.977,419.627z"/>
		<path style="fill:#23659B;" d="M1276.255,359.305c-0.521,0.003-0.942-0.452-0.893-0.972c1.783-14.801,17.463-33.988,19.525-32.964
			c1.405,1.809-16.679,17.702-17.739,33.117C1277.108,358.953,1276.716,359.305,1276.255,359.305z"/>
		<polygon style="fill:#163260;" points="1182.508,443.129 1301.054,443.129 1277.451,356.235 1159.621,356.235 		"/>
		<rect x="1182.508" y="442.699" style="fill:#234270;" width="118.547" height="5.901"/>
		<polygon style="fill:#0B274F;" points="1275.67,356.235 1279.911,356.235 1303.029,442.699 1359.287,442.699 1359.287,448.6 
			1299.08,448.6 1299.08,443.322 		"/>
		<path style="fill:#F99370;" d="M1383.076,305.846c27.327,20.482,41.924,57.342,34.705,90.861
			c-2.766,18.829-14.646,36.736-33.23,42.066c-9.175,3.669-51.976,9.571-49.982-5.622c0.679-3.645,3.911-4.987,7.042-5.961
			c5.16-1.819,10.478-3.83,15.398-6.066c8.811-4.573,20.139-8.858,22.057-18.751c4.084-23.099-5.38-45.682-22.641-60.761
			c0.031,0.018-0.082-0.069,0.174,0.116C1333.209,324.305,1359.545,288.642,1383.076,305.846z"/>
		<path style="fill:#3A72AA;" d="M1399.455,434.646c-13.914,6.212-27.092,8.119-37.222,8.486c0,0,2.339-15.116-8.584-21.344
			c61.536-46.766-26.354-66.448-9.473-135.166C1410.156,287.799,1478.282,387.81,1399.455,434.646z"/>
		<path style="fill:#F99370;" d="M1308.458,442.699c0,0,5.28-18.46,36.798-16.333l6.6,16.333H1308.458z"/>
		<path style="fill:#23659B;" d="M1369.544,442.621c-4.507,0.502-7.312,0.511-7.312,0.511s2.339-15.116-8.584-21.344
			c0,0,2.688-1.747,6.201-4.848C1359.849,416.939,1371.821,425.73,1369.544,442.621z"/>
		<path style="fill:#23659B;" d="M1359.287,419.523c-0.795,0.018-1.221-1.058-0.586-1.575c27.325-24.349,13.941-50.123-2.314-66.818
			c-0.798-0.819,0.535-2.098,1.316-1.219C1374.988,367.19,1388.101,395.742,1359.287,419.523z"/>
		<path style="fill:#23659B;" d="M1368.956,442.715c-5.109-2.976,14.351-1.492,29.152-8.488c0.458-0.187,0.981,0.03,1.17,0.488
			c0.188,0.458-0.031,0.982-0.489,1.17C1383.495,442.157,1369.155,442.711,1368.956,442.715z"/>
		<path style="fill:#F4D4BE;" d="M1350.273,314.274c-0.631,4.724-5.148,6.196-6.277,5.946c-15.871-6.782-4.582,14.637-11.111,16.818
			c-5.491,1.834-6.144-5.327-10.931-5.719c-6.95-0.569-8.363,3.216-10.804,0.915c-3.398-3.203,4.83-8.796,3.775-14.527
			c-0.741-4.024-8.743,0.021-8.637-8.263c0.125-8.136,9.438-20.326,9.734-20.702c0-0.009,0-0.009,0-0.009
			c5.861-3.27,18.62-1.782,24.412-1.711c0.09-0.582,3.74-0.398,3.74-0.398s2.553-0.564,5.012,0.368
			C1350.397,293.605,1351.531,307.181,1350.273,314.274z"/>
		<path style="fill:#F99370;" d="M1322.489,279.147l-0.536,7.872c0,0-0.736,7.572-0.736,21.649c0,19.79,4.889,17.486,11.668,3.661
			c3.725-7.596,11.29-25.086,11.29-25.086s-0.034-5.177,0.378-8.351L1322.489,279.147z"/>
		<path style="fill:#E57D61;" d="M1348.861,256.613c-0.09,0.374-0.195,0.752-0.319,1.115c-0.475-0.385-3.176,12.714-4.157,22.701
			c-9.468,5.546-20.424,4.809-22.301,4.23c0.506-14.776,1.748-36.887,13.125-41.006
			C1342.838,241.23,1350.924,248.753,1348.861,256.613z"/>
		<path style="fill:#C92828;" d="M1320.172,207.937c-28.59-3.43-33.126,41.702-13.696,58.307L1320.172,207.937z"/>
		<path style="fill:#F99370;" d="M1353.878,239.738c1.379,9.855,1.469,21.414-4.034,29.909l-0.012,0.004
			c-15.043,24.602-64.817,8.742-51.179-20.431c2.004-3.723,3.133-8.25,3.282-12.089
			C1302.385,196.844,1349.896,205.299,1353.878,239.738z"/>
		<path style="fill:#C16256;" d="M1316.262,244.985c-1.362-1.367,0.817-3.474,2.138-2.068
			C1319.762,244.284,1317.583,246.392,1316.262,244.985z"/>
		<path style="fill:#C16256;" d="M1303.695,246.657c-1.362-1.367,0.817-3.475,2.138-2.068
			C1307.194,245.956,1305.016,248.064,1303.695,246.657z"/>
		<path style="fill:#C16256;" d="M1311.182,257.829c-2.514,0.401-6.158-0.252-3.78-3.267c2.235-2.28,2.495-8.455,2.497-8.517
			c0.016-0.723,1.164-0.691,1.126,0.042c-0.01,0.271-0.279,6.672-2.82,9.262c-0.288,0.294-0.587,0.698-0.376,0.948
			c0.598,0.708,3.429,0.825,5.056-0.307c0.25-0.177,0.605-0.115,0.783,0.14C1314.089,257.307,1312.057,257.56,1311.182,257.829z"/>
		<path style="fill:#E57D61;" d="M1353.878,239.738c1.379,9.855,1.469,21.414-4.034,29.909l-0.012,0.004
			c2.538-6.369,1.585-18.575,1.585-18.575l-3.507-4.48c-35.841-0.48-41.111-27.523-41.111-27.523
			C1322.55,197.913,1352.008,217.022,1353.878,239.738z"/>
		<path style="fill:#C92828;" d="M1309.546,215.677c0,0,5.329,26.626,37.769,28.238l8.691-9.005
			C1360.046,211.731,1332.496,187.999,1309.546,215.677z"/>
		<path style="fill:#F99370;" d="M1361.302,242.645c1.151,11.273-13.091,12.566-13.987,1.269
			C1346.165,232.641,1360.406,231.349,1361.302,242.645z"/>
		<path style="fill:#C16256;" d="M1357.948,239.727C1357.948,239.727,1357.948,239.727,1357.948,239.727
			c-1.451-4.469-10.051,0.303-6.391,0.472c0.015-0.198,3.825-2.48,5.012-0.499c-3.755,1.772-5.006,8.772-2.833,6.509
			c0.004-0.042,0.457-4.029,3.41-5.535C1358.613,250.855,1359.946,243.792,1357.948,239.727z"/>
		<path style="fill:#F4D4BE;" d="M1356.94,249.378c0.505,1.559-1.955,2.317-2.415,0.744
			C1354.02,248.562,1356.48,247.804,1356.94,249.378z"/>
		<path style="fill:#23659B;" d="M1321.218,342.216c0.048,3.265-5.081,3.265-5.033,0
			C1316.137,338.951,1321.266,338.951,1321.218,342.216z"/>
		<path style="fill:#23659B;" d="M1316.275,359.938c0.048,3.265-5.081,3.265-5.033,0
			C1311.194,356.673,1316.323,356.673,1316.275,359.938z"/>
		<path style="fill:#23659B;" d="M1316.275,375.886c0.048,3.265-5.081,3.265-5.033,0
			C1311.194,372.621,1316.323,372.621,1316.275,375.886z"/>
		<path style="fill:#23659B;" d="M1229.777,648.607c0.466,7.912,0.887,12.688,0.887,12.688c-28.468,9.167-43.772,0-43.772,0
			s-0.797-3.97-2.025-10.815C1185.207,650.649,1203.11,659.449,1229.777,648.607z"/>
		<path style="fill:#23659B;" d="M1293.093,661.295c-28.468,9.167-43.773,0-43.773,0s-1.039-3.665-2.652-9.991
			c0,0,15.78,8.163,44.937,0C1292.465,657.558,1293.093,661.295,1293.093,661.295z"/>
		<path style="fill:#E57D61;" d="M1310.179,442.513c-5.601,0.172,14.788-13.816,20.87-10.395c0.05,0.494-0.309,0.934-0.801,0.983
			C1318.774,434.3,1311.146,442.478,1310.179,442.513z"/>
		<path style="fill:#E57D61;" d="M1318.815,442.829c-4.25-1.814,8.953-4.923,15.49-6.693c0.481-0.102,0.959,0.211,1.059,0.696
			c0.1,0.485-0.212,0.958-0.696,1.059C1327.705,439.326,1319.517,442.754,1318.815,442.829z"/>
		<path style="fill:#C16256;" d="M1320.931,240.418c-0.138,0-0.276-0.044-0.392-0.135c-3.578-2.8-6.833-1.89-6.969-1.849
			c-0.338,0.1-0.692-0.093-0.792-0.43c-0.1-0.336,0.089-0.69,0.425-0.792c0.16-0.05,4-1.159,8.12,2.066
			c0.277,0.217,0.327,0.618,0.11,0.895C1321.308,240.334,1321.121,240.418,1320.931,240.418z"/>
		<path style="fill:#C16256;" d="M1302.209,241.956c-0.123,0-0.247-0.035-0.356-0.109c-0.292-0.197-0.369-0.594-0.172-0.885
			c0.083-0.124,2.07-3.022,5.383-2.894c0.352,0.014,0.626,0.31,0.612,0.662c-0.014,0.352-0.308,0.633-0.662,0.612
			c-2.604-0.084-4.26,2.309-4.276,2.333C1302.615,241.858,1302.414,241.956,1302.209,241.956z"/>
		<path style="fill:#C16256;" d="M1315.981,263.851c-0.834,0-1.565-0.296-2.028-0.896c-0.989-1.28-0.336-3.387,1.488-4.796
			c1.824-1.409,4.028-1.512,5.016-0.232c0,0,0,0,0,0c0.989,1.28,0.335,3.387-1.489,4.796
			C1318,263.471,1316.925,263.851,1315.981,263.851z M1318.422,258.313c-0.632,0-1.436,0.263-2.201,0.854
			c-1.322,1.022-1.725,2.406-1.259,3.008c0.465,0.602,1.905,0.561,3.227-0.461c1.322-1.022,1.725-2.405,1.26-3.008l0,0
			C1319.252,258.453,1318.882,258.313,1318.422,258.313z"/>
	</g>
	<g id="_x31_">
		<path style="fill:#1D3F70;" d="M2336.6,1264.552c-1.055,0.546,13.068,0.436,12.158,1.492
			c-29.734,25.716-74.094,33.858-107.017,8.809v-0.036c-9.796-7.168-19.693-18.7-26.573-30.759l8.081-13.104
			c64.181,39.588,89.587-27.973,141.78-33.234l-10.446,15.252L2336.6,1264.552z"/>
		<path style="fill:#F99370;" d="M2407.862,1717.119l0.979-0.511c0,0.685,0.848,3.066,1.533,3.066l28.959,0.596
			c0.685,0,1.107-1.291,1.107-1.976l2.47-0.707c0-4.337-0.357-5.909-2.272-9.265c-7.041-9.358,1.365-51.209,1.121-62.142
			c1.736-2.99-30.496-0.644-30.946-1.35c-0.724,0.001-1.295,0.619-1.237,1.34l3.793,47.821
			C2415.072,1703.071,2408.104,1708.559,2407.862,1717.119z"/>
		<path style="fill:#F99370;" d="M2282.327,1721.286h57.684c5.035-0.203,4.997-5.339,4.069-9.321
			c-3.176-14.355,2.438-47.318,3.479-62.081c0.277-2.703-1.844-5.053-4.562-5.053h-25.458c-2.759,0-4.894,2.419-4.55,5.157
			l4.63,36.917c2.515,16.039-16.615,19.096-27.523,20.869C2282.915,1708.294,2270.906,1718.095,2282.327,1721.286z"/>
		<path style="fill:#3A72AA;" d="M2346.276,1715.302c-0.156,2.828-1.558,6.055-4.834,5.984c0,0-59.834,0-59.834,0
			c-14.113-5.235,7.033-23.958,34.659-23.847C2335.908,1702.83,2346.941,1687.519,2346.276,1715.302z"/>
		<path style="fill:#3A72AA;" d="M2438.323,1721.286h-25.573c-12.463-1.702-3.484-25.614,12.783-23.885
			C2441.846,1695.336,2450.777,1719.607,2438.323,1721.286z"/>
		<path style="fill:#23659B;" d="M2277.42,1715.302h68.855c-0.253,2.102-0.834,4.143-1.888,5.985h-62.78
			C2278.515,1721.291,2276.322,1718.191,2277.42,1715.302z"/>
		<path style="fill:#23659B;" d="M2438.323,1721.286h-25.573c-3.254,0.004-5.872-2.738-5.671-5.985h36.916
			C2444.192,1718.548,2441.577,1721.291,2438.323,1721.286z"/>
		<path style="fill:#1D3F70;" d="M2357.013,1131.899c0,0-0.302-18.697,16.597-22.016l8.86,9.191L2357.013,1131.899z"/>
		<path style="fill:#CE4ABF;" d="M2445.795,1688.652c0,0-27.275,6.625-41.327-0.494c-7.314-45.865-27.616-173.572-34.688-261.084
			c-0.271,5.103-15.127,210.901-17.954,261.084c-9.701,3.246-29.209,7.162-40.126-0.701c-4.904-52.828-20.65-226.759,3.069-368.811
			c0,0,65,7.231,115.761-8.108C2444.503,1355.598,2448.204,1634.58,2445.795,1688.652z"/>
		<path style="fill:#A523A2;" d="M2445.502,1678.257c-7.797,1.746-15.013,2.356-21.215,2.388
			c-2.845-155.115-25.803-301.364-29.286-301.923c-2.608,1.954,19.928,146.529,29.186,301.923
			c-12.864,0.053-21.314-2.388-21.314-2.388c1.014,6.352,1.595,9.901,1.595,9.901c14.052,7.119,41.327,0.494,41.327,0.494
			C2445.708,1688.138,2445.608,1684.449,2445.502,1678.257z"/>
		<path style="fill:#A523A2;" d="M2351.826,1688.158c-0.227-4.41,17.954-261.084,17.954-261.084s-8.587,4.584-10.629,31.839
			c-1.775,23.697-12.366,181.168-15.101,221.885c-8.48,1.894-16.114,1.542-21.927,0.594c-6.479-151.108,8.689-280.733,6.404-282.284
			c-3.996,0.321-19.267,131.093-6.475,282.273c-6.943-1.141-11.267-3.125-11.267-3.125c0.567,5.965,0.914,9.201,0.914,9.201
			c8.943,6.441,23.649,4.977,34.009,2.453c2.619-0.61,4.626-1.258,5.551-1.567
			C2351.45,1688.281,2351.643,1688.219,2351.826,1688.158z"/>
		<path style="fill:#F99370;" d="M2364.555,1197.204c-1.419-12.369,0.518-30.216,2.242-37.557
			c3.11-14.481,26.074-8.877,22.258,5.358c-0.74-0.466-3.11,25.776-1.474,33.06
			C2409.131,1204.53,2344.316,1225.789,2364.555,1197.204z"/>
		<path style="fill:#E57D61;" d="M2389.275,1163.81c-0.056,0.399-0.127,0.804-0.22,1.194c-0.534-0.354-2.028,14.125-2.042,24.633
			c-9.875,4.49-20.884,2.515-22.899,2.102c-0.216-13.311,1.007-25.438,2.962-33.053
			C2371.08,1145.8,2391.318,1150.496,2389.275,1163.81z"/>
		<path style="fill:#F99370;" d="M2404.588,1158.407c-3.27,9.895-8.539,20.793-17.642,26.222l-0.013-0.002
			c-3.697,2.182-7.888,3.247-12.217,3.402c-24.316,3.28-48.268-29.823-26.386-46.296c3.606-2.57,6.764-6.298,8.682-9.834
			C2376.508,1094.308,2416.487,1123.811,2404.588,1158.407z"/>
		<path style="fill:#F9F8F3;" d="M2353.832,1162.316l14.413-4.664C2368.322,1165.809,2358.698,1169.743,2353.832,1162.316z"/>
		<path style="fill:#103663;" d="M2322.368,1249.519l-10.01,36.729c-21.44,6.589-44.299,5.096-64.465-7.28
			c22.167,12.522,52.635,5.46,57.44-1.893C2310.392,1269.285,2321.677,1250.647,2322.368,1249.519z"/>
		<path style="fill:#1D3F70;" d="M2439.989,1371.87c-2.322,2.822-4.797,5.651-7.419,8.494c0,0-12.77,2.402-22.772-10.902
			c40.785-86.459-37.956-94.527-22.218-171.398C2440.189,1204.275,2513.375,1282.792,2439.989,1371.87z"/>
		<path style="fill:#C16256;" d="M2366.832,1145.911c-0.646-1.915,2.376-2.885,2.965-0.952
			C2370.443,1146.874,2367.421,1147.844,2366.832,1145.911z"/>
		<path style="fill:#C16256;" d="M2354.254,1141.66c-0.646-1.915,2.377-2.885,2.966-0.952
			C2357.865,1142.623,2354.843,1143.593,2354.254,1141.66z"/>
		<path style="fill:#E57D61;" d="M2404.588,1158.407c-3.27,9.895-8.539,20.793-17.642,26.222l-0.013-0.002
			c-0.754,0.446-1.535,0.848-2.335,1.199c7.081-5.079,12.708-17.507,12.708-17.507l0.333-11.239
			c-8.25-11.571-2.202-22.12-2.202-22.12c-17.225,1.975-21.144-9.089-21.144-9.089c-5.319-0.165-10.377-3.675-10.377-3.675
			C2387.614,1098.443,2414.86,1132.376,2404.588,1158.407z"/>
		<path style="fill:#C16256;" d="M2353.832,1162.905c0.324-0.369,15.714-4.3,14.975-5.434c0.295-1.437-14.863,4.491-15.156,4.284
			C2353.021,1161.938,2353.184,1162.927,2353.832,1162.905z"/>
		<path style="fill:#C16256;" d="M2358,1155.903c1.013,0.314,1.877-1.102,0.561-1.22c-2.072,0.391-6.599-1.743-4.099-2.769
			c3.582-1.222,9.17-9.421,5.903-7.954c-0.031,0.057-3.136,5.736-6.292,6.842C2349.748,1152.946,2355.007,1155.908,2358,1155.903z"
			/>
		<path style="fill:#103663;" d="M2439.989,1371.87c-2.322,2.822-4.797,5.651-7.419,8.494c0,0-13.005,1.821-23.006-11.483
			c1.47-3.569,3.094-5.888,4.345-9.435C2413.908,1359.445,2421.634,1368.094,2439.989,1371.87z"/>
		<path style="fill:#A523A2;" d="M2433.488,1382.074c2.754,0.826,5.651-2.434,1.91-3.379c-20.239,0.883-25.632-12.478-25.852-13.047
			C2400.772,1360.709,2411.553,1383.289,2433.488,1382.074z"/>
		<path style="fill:#F4D4BE;" d="M2305.318,1379.712c0,0,3.97,17.032,35.742,25.432c9.1,2.406,14.359,1.217,15.693-5.092
			c0.67-3.169,2.4-8.682,5.58-10.726c0,0,7.109,3.07,9.791,7.426c5.881,9.548,14.742,0.873,19.055-9.121
			c5.335-12.362,18.852-22.835,21.809-33.204L2305.318,1379.712z"/>
		<path style="fill:#1D3F70;" d="M2434.786,1358.659c-1.035,1.83-1.652,1.54-2.71,0.479c-28.541-21.316-38.76,25.259-69.515,26.094
			c-31.305,3.098-48.719,4.866-57.246-5.522c-14.887-23.074,8.791-126.218,27.943-151.195c8.389-12.986,23.274-24.56,31.285-31.299
			c-0.164,0.677-4.429,18.414,23.039,0.847c1.381,0.583,10.089,9.078,9.541,13.625
			C2398.517,1232.571,2448.064,1335.2,2434.786,1358.659z"/>
		<path style="fill:#1D3F70;" d="M2355.524,1105.253c0,0,8.054-2.218,16.308,1.024c0.946-3.131,2.875-6.02,6.008-8.307
			c1.346,3.805,3.259,7.457,5.438,10.862c0.746-7.154,5.156-12.955,5.156-12.955c1.178,6.854,10.651,11.783,15.118,19.201
			l0.242-0.344c0,0,25.02,9.006,6.987,31.185l0-0.001c-0.743,8.208-4.749,16.511-4.749,16.511
			c-13.259-12.111-10.403-26.665-4.378-30.45c-10.806,3.832-20.432-0.71-25.868-7.882
			C2367.749,1122.764,2357.924,1118.388,2355.524,1105.253z"/>
		<path style="fill:#103663;" d="M2418.266,1365.218l-6.259-1.301c25.019-56.321-4.405-80.132-19.969-111.864
			C2428.129,1293.817,2433.591,1316.714,2418.266,1365.218z"/>
		<path style="fill:#F99370;" d="M2410.217,1164.576c-4.141,11.12-18.115,5.738-13.724-5.287
			C2400.633,1148.169,2414.607,1153.552,2410.217,1164.576z"/>
		<path style="fill:#C16256;" d="M2406.262,1166.381c2.554-2.674,2.552-7.165,1.388-8.413c-2.122-2.179-6.146-1.921-6.152-0.657
			c0.541,1.275,3.271-0.812,5.226,1.385C2408.832,1160.355,2404.617,1165.704,2406.262,1166.381z"/>
		<path style="fill:#C16256;" d="M2400.961,1164.694c0.901-0.063,2.363-4.147,6.816-3.88c0.322,0.036,0.611-0.208,0.642-0.532
			C2405.517,1157.343,2398.333,1164.751,2400.961,1164.694z"/>
		<path style="fill:#F4D4BE;" d="M2396.028,1199.571c0.149,10.479-26.733,19.729-28.256,19.743l-3.223-9.534
			c-4.136,1.021-7.78,6.812-7.78,6.812c-11.924-11.36-0.711-21.263,7.78-19.389c0,0,0,0.007-0.007,0.013
			c-0.166,0.677-2.04,16.225,22.936,0.308C2390.695,1196.035,2396.028,1199.571,2396.028,1199.571z"/>
		<path style="fill:#103663;" d="M2230.347,1234.667c-0.036,8.373-11.429,15.435-11.429,15.435
			c-1.274-1.929-2.549-3.968-3.749-6.043l8.081-13.104C2225.688,1232.301,2228.053,1233.539,2230.347,1234.667z"/>
		<path style="fill:#F99370;" d="M2211.381,1207.392c-3.128,2.012,2.002,8.203,1.613,11.573c-5.187-2.364-9.73-6.246-9.768-6.239
			c-4.447-5.484-8.589-11.197-12.474-17.101c-9.581-4.389,5.615,17.308,6.761,19.979c-0.026,0.024-0.051,0.05-0.076,0.074
			c-5.753-4.645-11.262-9.614-16.316-15.014c-10.78-2.25,10.951,17.58,12.927,19.94c-0.007,0.016-0.014,0.032-0.021,0.048
			c-6.15-3.453-11.883-7.661-17.093-12.423c-11.055-1.301,12.557,17.143,15.182,18.796c-0.005,0.027-0.01,0.055-0.015,0.082
			c-4.68-0.622-14.308-9.274-17.398-7.182c-2.93,4.746,28.687,21.773,39.766,23.912c3.986,1.097,9.74-8.931,8.764-12.872
			c-0.915-3.695-3.464-8.217-4.339-9.876C2217.513,1217.234,2215.969,1207.697,2211.381,1207.392z"/>
		<path style="fill:#395B96;" d="M2241.704,1274.745c0.328,0.254,0.656,0.509,0.983,0.801c-0.327-0.255-0.618-0.474-0.946-0.692
			v-0.036C2241.704,1274.781,2241.704,1274.745,2241.704,1274.745z"/>
		<path style="fill:#C16256;" d="M2375.256,1145.513c-0.302,0-0.575-0.204-0.654-0.509c-0.046-0.177-1.184-4.288-7.458-6.427
			c-0.353-0.12-0.542-0.504-0.422-0.857c0.12-0.353,0.504-0.544,0.857-0.422c7.013,2.391,8.283,7.172,8.333,7.374
			c0.091,0.363-0.13,0.729-0.491,0.82C2375.366,1145.505,2375.31,1145.513,2375.256,1145.513z"/>
		<path style="fill:#C16256;" d="M2354.942,1136.772c-0.191,0-0.381-0.08-0.515-0.237c-0.242-0.284-0.208-0.71,0.076-0.953
			c3.372-2.866,7.985-0.569,8.181-0.47c0.332,0.17,0.464,0.575,0.296,0.908c-0.169,0.332-0.575,0.467-0.908,0.297
			c-0.04-0.021-4.016-1.986-6.693,0.295C2355.253,1136.72,2355.097,1136.772,2354.942,1136.772z"/>
	</g>
</g>
</svg>
